<svg id="OBJECTS" xmlns="http://www.w3.org/2000/svg" viewBox="0 0 498.86 36.02"><defs><style>.cls-1{fill:#37474f;}.cls-2{fill:#90a4ae;}.cls-3{fill:#546e7a;}.cls-4{fill:#b0bec5;}.cls-5{fill:#01579b;}</style></defs><path class="cls-1" d="M33.17,277.63a4.75,4.75,0,1,1-4.75-4.75A4.75,4.75,0,0,1,33.17,277.63Z" transform="translate(-1.14 -246.35)"/><path class="cls-1" d="M45.84,277.63a4.74,4.74,0,1,1-4.74-4.75A4.74,4.74,0,0,1,45.84,277.63Z" transform="translate(-1.14 -246.35)"/><path class="cls-1" d="M141.43,277.63a4.74,4.74,0,1,1-4.74-4.75A4.74,4.74,0,0,1,141.43,277.63Z" transform="translate(-1.14 -246.35)"/><path class="cls-1" d="M154.11,277.63a4.75,4.75,0,1,1-4.74-4.75A4.75,4.75,0,0,1,154.11,277.63Z" transform="translate(-1.14 -246.35)"/><path class="cls-2" d="M76.89,246.35c-44.18.46-66.45,14.73-74.92,22a2.34,2.34,0,0,0,1.52,4.13h160.9v-24a2.15,2.15,0,0,0-2.15-2.15Z" transform="translate(-1.14 -246.35)"/><path class="cls-3" d="M156.92,277.63H16a5.17,5.17,0,0,1-5.16-5.17H159.06v3A2.15,2.15,0,0,1,156.92,277.63Z" transform="translate(-1.14 -246.35)"/><path class="cls-1" d="M45.45,261.12V253.7H29.12a95.27,95.27,0,0,0-16.73,7.42Z" transform="translate(-1.14 -246.35)"/><rect class="cls-1" x="75.16" y="5.68" width="8.09" height="7.42"/><rect class="cls-1" x="86.66" y="5.68" width="8.09" height="7.42"/><rect class="cls-1" x="98.15" y="5.68" width="8.09" height="7.42"/><rect class="cls-1" x="109.65" y="5.68" width="8.09" height="7.42"/><rect class="cls-1" x="121.15" y="5.68" width="8.09" height="7.42"/><rect class="cls-1" x="132.64" y="5.68" width="8.09" height="7.42"/><rect class="cls-4" x="60.21" y="3.64" width="9.96" height="20.4"/><rect class="cls-1" x="61.86" y="5.68" width="6.65" height="3.67"/><rect class="cls-4" x="145.73" y="3.64" width="9.96" height="20.4"/><rect class="cls-1" x="147.39" y="5.68" width="6.65" height="3.67"/><path class="cls-5" d="M53.65,265.2H164.39v-3.57H61.18a9.73,9.73,0,0,0-7.53,3.57Z" transform="translate(-1.14 -246.35)"/><rect class="cls-1" x="164.39" y="249.99" width="3.09" height="24" transform="translate(330.74 277.63) rotate(180)"/><path class="cls-1" d="M191.16,277.63a4.75,4.75,0,1,1-4.74-4.75A4.75,4.75,0,0,1,191.16,277.63Z" transform="translate(-1.14 -246.35)"/><path class="cls-1" d="M203.83,277.63a4.74,4.74,0,1,1-4.74-4.75A4.74,4.74,0,0,1,203.83,277.63Z" transform="translate(-1.14 -246.35)"/><path class="cls-1" d="M308,277.63a4.75,4.75,0,1,1-4.75-4.75A4.75,4.75,0,0,1,308,277.63Z" transform="translate(-1.14 -246.35)"/><path class="cls-1" d="M320.62,277.63a4.74,4.74,0,1,1-4.74-4.75A4.74,4.74,0,0,1,320.62,277.63Z" transform="translate(-1.14 -246.35)"/><path class="cls-2" d="M328.45,246.35h-159a2.15,2.15,0,0,0-2.15,2.15v24H330.59v-24A2.14,2.14,0,0,0,328.45,246.35Z" transform="translate(-1.14 -246.35)"/><path class="cls-3" d="M323.12,277.63H182.19a5.17,5.17,0,0,1-5.16-5.17H325.27v3A2.15,2.15,0,0,1,323.12,277.63Z" transform="translate(-1.14 -246.35)"/><rect class="cls-1" x="243.79" y="5.68" width="8.09" height="7.42"/><rect class="cls-1" x="255.24" y="5.68" width="8.09" height="7.42"/><rect class="cls-1" x="266.69" y="5.68" width="8.09" height="7.42"/><rect class="cls-1" x="278.14" y="5.68" width="8.09" height="7.42"/><rect class="cls-1" x="289.59" y="5.68" width="8.09" height="7.42"/><rect class="cls-1" x="301.05" y="5.68" width="8.09" height="7.42"/><rect class="cls-1" x="186.53" y="5.68" width="8.09" height="7.42"/><rect class="cls-1" x="197.98" y="5.68" width="8.09" height="7.42"/><rect class="cls-1" x="209.43" y="5.68" width="8.09" height="7.42"/><rect class="cls-1" x="220.88" y="5.68" width="8.09" height="7.42"/><rect class="cls-1" x="232.33" y="5.68" width="8.09" height="7.42"/><rect class="cls-4" x="172.24" y="3.64" width="9.96" height="20.4"/><rect class="cls-1" x="173.9" y="5.68" width="6.65" height="3.67"/><rect class="cls-4" x="313.46" y="3.64" width="9.96" height="20.4"/><rect class="cls-1" x="315.12" y="5.68" width="6.65" height="3.67"/><path class="cls-5" d="M219.86,265.2H330.59v-3.57H227.39a9.73,9.73,0,0,0-7.53,3.57Z" transform="translate(-1.14 -246.35)"/><rect class="cls-1" x="330.59" y="249.99" width="3.09" height="24" transform="translate(663.15 277.63) rotate(180)"/><rect class="cls-5" x="166.21" y="15.28" width="163.25" height="3.57"/><path class="cls-1" d="M357.47,277.63a4.74,4.74,0,1,1-4.74-4.75A4.74,4.74,0,0,1,357.47,277.63Z" transform="translate(-1.14 -246.35)"/><path class="cls-1" d="M370.15,277.63a4.75,4.75,0,1,1-4.75-4.75A4.75,4.75,0,0,1,370.15,277.63Z" transform="translate(-1.14 -246.35)"/><path class="cls-1" d="M474.26,277.63a4.74,4.74,0,1,1-4.74-4.75A4.74,4.74,0,0,1,474.26,277.63Z" transform="translate(-1.14 -246.35)"/><path class="cls-1" d="M486.93,277.63a4.74,4.74,0,1,1-4.74-4.75A4.74,4.74,0,0,1,486.93,277.63Z" transform="translate(-1.14 -246.35)"/><path class="cls-2" d="M494.76,246.35h-159a2.15,2.15,0,0,0-2.15,2.15v24H496.91v-24A2.15,2.15,0,0,0,494.76,246.35Z" transform="translate(-1.14 -246.35)"/><path class="cls-3" d="M489.44,277.63H348.5a5.17,5.17,0,0,1-5.16-5.17H491.58v3A2.15,2.15,0,0,1,489.44,277.63Z" transform="translate(-1.14 -246.35)"/><rect class="cls-1" x="410.1" y="5.68" width="8.09" height="7.42"/><rect class="cls-1" x="421.55" y="5.68" width="8.09" height="7.42"/><rect class="cls-1" x="433" y="5.68" width="8.09" height="7.42"/><rect class="cls-1" x="444.46" y="5.68" width="8.09" height="7.42"/><rect class="cls-1" x="455.91" y="5.68" width="8.09" height="7.42"/><rect class="cls-1" x="467.36" y="5.68" width="8.09" height="7.42"/><rect class="cls-1" x="352.84" y="5.68" width="8.09" height="7.42"/><rect class="cls-1" x="364.29" y="5.68" width="8.09" height="7.42"/><rect class="cls-1" x="375.74" y="5.68" width="8.09" height="7.42"/><rect class="cls-1" x="387.19" y="5.68" width="8.09" height="7.42"/><rect class="cls-1" x="398.65" y="5.68" width="8.09" height="7.42"/><rect class="cls-4" x="338.56" y="3.64" width="9.96" height="20.4"/><rect class="cls-1" x="340.21" y="5.68" width="6.65" height="3.67"/><rect class="cls-4" x="479.77" y="3.64" width="9.96" height="20.4"/><rect class="cls-1" x="481.43" y="5.68" width="6.65" height="3.67"/><path class="cls-5" d="M386.17,265.2H496.91v-3.57H393.7a9.73,9.73,0,0,0-7.53,3.57Z" transform="translate(-1.14 -246.35)"/><rect class="cls-1" x="496.91" y="249.99" width="3.09" height="24" transform="translate(995.77 277.63) rotate(180)"/><rect class="cls-5" x="332.52" y="15.28" width="163.25" height="3.57"/></svg>